# File created by Blade
# Date/Time:  Fri Jan 16 17:18:57 2015
#---------------------------------------------------------
:version 1.10
:name HOM
:units
  mass 1.0
  length 1.000000
  angle deg
:documentation
     Acclaim Skeleton File
:root
   axis xyz
   order TX TY TZ RX RY RZ
   position 0.000000 0.000000 0.000000
   orientation 0 0 0
:bonedata
   begin
      id 1
      name Spine_dum
      direction 0.000000 1.000000 0.000000
      length 7.170412
      axis 0.0 0.0 0.0 xyz
   end
   begin
      id 2
      name LeftUpLeg_dum
      direction 1.000000 0.000000 0.000000
      length 4.318350
      axis 0.0 0.0 0.0 xyz
   end
   begin
      id 3
      name RightUpLeg_dum
      direction -1.000000 0.000000 0.000000
      length 4.318350
      axis 0.0 0.0 0.0 xyz
   end
   begin
      id 4
      name Spine
      direction 0.000000 1.000000 0.000000
      length 0.000000
      axis 0.0 0.0 0.0 xyz
      dof rx ry rz
   end
   begin
      id 5
      name Spine_dum1
      direction 0.000000 1.000000 0.000000
      length 14.276153
      axis 0.0 0.0 0.0 xyz
   end
   begin
      id 6
      name Spine_dum2
      direction 0.000000 1.000000 0.000000
      length 10.718243
      axis 0.0 0.0 0.0 xyz
   end
   begin
      id 7
      name Spine_dum3
      direction 0.000000 1.000000 0.000000
      length 10.718243
      axis 0.0 0.0 0.0 xyz
   end
   begin
      id 8
      name Head
      direction 0.000000 1.000000 0.000000
      length 4.527550
      axis 0.0 0.0 0.0 xyz
      dof rx ry rz
   end
   begin
      id 9
      name LeftShoulder
      direction 1.000000 0.000000 0.000000
      length 7.058872
      axis 0.0 0.0 -90.0 xyz
      dof rx ry rz
   end
   begin
      id 10
      name LeftArm
      direction 1.000000 0.000000 0.000000
      length 10.955525
      axis 0.0 0.0 -90.0 xyz
      dof rx ry rz
   end
   begin
      id 11
      name LeftForeArm
      direction 1.000000 0.000000 0.000000
      length 8.193716
      axis 0.0 0.0 -90.0 xyz
      dof ry rz rx
   end
   begin
      id 12
      name LeftHand
      direction 0.000000 0.000000 0.000000
      length 0.000000
      axis 0.0 0.0 -90.0 xyz
      dof rx ry rz
   end
   begin
      id 13
      name LeftHand_dum1
      direction 0.000000 0.000000 0.000000
      length 0.000000
      axis 0.0 0.0 -90.0 xyz
   end
   begin
      id 14
      name LeftHand_dum2
      direction 1.000000 0.000000 0.000000
      length 3.937000
      axis 0.0 0.0 -90.0 xyz
   end
   begin
      id 15
      name LeftHandThumb1
      direction 0.000000 0.000000 1.000000
      length 3.937000
      axis 0.0 0.0 -90.0 xyz
      dof rx rz ry
   end
   begin
      id 16
      name RightShoulder
      direction -1.000000 0.000000 0.000000
      length 7.058872
      axis 0.0 0.0 90.0 xyz
      dof rx ry rz
   end
   begin
      id 17
      name RightArm
      direction -1.000000 0.000000 0.000000
      length 10.955525
      axis 0.0 0.0 90.0 xyz
      dof rx ry rz
   end
   begin
      id 18
      name RightForeArm
      direction -1.000000 0.000000 0.000000
      length 8.193716
      axis 0.0 0.0 90.0 xyz
      dof ry rz rx
   end
   begin
      id 19
      name RightHand
      direction 0.000000 0.000000 0.000000
      length 0.000000
      axis 0.0 0.0 90.0 xyz
      dof rx ry rz
   end
   begin
      id 20
      name RightHand_dum1
      direction 0.000000 0.000000 0.000000
      length 0.000000
      axis 0.0 0.0 90.0 xyz
   end
   begin
      id 21
      name RightHand_dum2
      direction -1.000000 0.000000 0.000000
      length 3.937000
      axis 0.0 0.0 90.0 xyz
   end
   begin
      id 22
      name RightHandThumb1
      direction 0.000000 0.000000 1.000000
      length 3.937000
      axis 0.0 0.0 90.0 xyz
      dof rx rz ry
   end
   begin
      id 23
      name LeftUpLeg
      direction 0.000000 -1.000000 0.000000
      length 17.323638
      axis 0.0 0.0 0.0 xyz
      dof rx ry rz
   end
   begin
      id 24
      name LeftLeg
      direction 0.000000 -1.000000 0.000000
      length 16.270368
      axis 0.0 0.0 0.0 xyz
      dof rx ry rz
   end
   begin
      id 25
      name LeftFoot
      direction 0.000000 -0.258819 0.965926
      length 4.922846
      axis 15.0 0.0 0.0 xyz
      dof rx ry rz
   end
   begin
      id 26
      name LeftToeBase
      direction 0.000000 0.000000 1.000000
      length 2.952750
      axis 0.0 0.0 0.0 xyz
      dof rx ry rz
   end
   begin
      id 27
      name RightUpLeg
      direction 0.000000 -1.000000 0.000000
      length 17.323638
      axis 0.0 0.0 0.0 xyz
      dof rx ry rz
   end
   begin
      id 28
      name RightLeg
      direction 0.000000 -1.000000 0.000000
      length 16.270368
      axis 0.0 0.0 0.0 xyz
      dof rx ry rz
   end
   begin
      id 29
      name RightFoot
      direction 0.000000 -0.258819 0.965926
      length 4.922846
      axis 15.0 0.0 0.0 xyz
      dof rx ry rz
   end
   begin
      id 30
      name RightToeBase
      direction 0.000000 0.000000 1.000000
      length 2.952750
      axis 0.0 0.0 0.0 xyz
      dof rx ry rz
   end
:hierarchy
   begin
      root Spine_dum LeftUpLeg_dum RightUpLeg_dum
      Spine_dum Spine
      LeftUpLeg_dum LeftUpLeg
      RightUpLeg_dum RightUpLeg
      Spine Spine_dum1 Spine_dum2 Spine_dum3
      Spine_dum1 Head
      Spine_dum2 LeftShoulder
      Spine_dum3 RightShoulder
      LeftShoulder LeftArm
      LeftArm LeftForeArm
      LeftForeArm LeftHand
      LeftHand LeftHand_dum1 LeftHand_dum2
      LeftHand_dum1 LeftHandThumb1
      RightShoulder RightArm
      RightArm RightForeArm
      RightForeArm RightHand
      RightHand RightHand_dum1 RightHand_dum2
      RightHand_dum1 RightHandThumb1
      LeftUpLeg LeftLeg
      LeftLeg LeftFoot
      LeftFoot LeftToeBase
      RightUpLeg RightLeg
      RightLeg RightFoot
      RightFoot RightToeBase
   end

# File created by Blade
# Date/Time:  Fri Jan 16 17:19:08 2015
# Frame Rate: 120.000 fps
#------------------------------------------------------
:FULLY-SPECIFIED
:DEGREES
137
root -5.334251 35.226285 -9.795795 -1.889534 -6.570504 -5.890679
Spine -1.569841 -1.345021 9.422244
Head 6.808527 0.056261 -7.633331
LeftShoulder -22.014236 13.914152 -16.165006
LeftArm 19.913735 -7.349227 -75.723166
LeftForeArm 16.886913 0.000000 10.977525
LeftHand 0.080226 -0.000000 -5.660881
LeftHandThumb1 -26.253704 0.000000 33.147579
RightShoulder -6.116953 4.148741 -4.302935
RightArm -3.106999 6.659790 50.505804
RightForeArm -24.646427 -0.000000 14.746927
RightHand 0.811653 -0.000000 6.964351
RightHandThumb1 -24.326973 -0.000000 -32.862282
LeftUpLeg 12.442190 15.010957 7.225276
LeftLeg -8.874380 -0.000000 0.000000
LeftFoot -16.161111 27.722870 -8.908763
LeftToeBase 22.526610 -0.000000 -0.000000
RightUpLeg 8.763627 -2.740398 4.139234
RightLeg -4.829902 -0.000000 0.000000
RightFoot -4.065636 -28.544548 3.188773
RightToeBase 13.975465 -0.000000 -0.000000
138
root -5.335796 35.226216 -9.795623 -1.890415 -6.557766 -5.888306
Spine -1.557349 -1.362799 9.422722
Head 6.791431 0.121726 -7.640754
LeftShoulder -22.022802 13.912682 -16.179409
LeftArm 19.888855 -7.341582 -75.714203
LeftForeArm 16.951424 0.000000 10.993281
LeftHand 0.073976 -0.000000 -5.696462
LeftHandThumb1 -26.253704 0.000000 33.147579
RightShoulder -6.117292 4.157185 -4.310861
RightArm -3.143626 6.754293 50.526397
RightForeArm -24.701928 -0.000000 14.766722
RightHand 0.765211 -0.000000 7.017130
RightHandThumb1 -24.326973 -0.000000 -32.862282
LeftUpLeg 12.438046 15.029524 7.229301
LeftLeg -8.867247 -0.000000 0.000000
LeftFoot -16.154902 27.697776 -8.894848
LeftToeBase 22.532728 -0.000000 -0.000000
RightUpLeg 8.771284 -2.757458 4.137391
RightLeg -4.841685 -0.000000 0.000000
RightFoot -4.060352 -28.524126 3.260880
RightToeBase 13.841771 -0.000000 -0.000000
139
root -5.337749 35.226140 -9.795859 -1.889513 -6.537637 -5.882100
Spine -1.547936 -1.386042 9.412627
Head 6.776360 0.166325 -7.637297
LeftShoulder -22.033740 13.932404 -16.197855
LeftArm 19.889000 -7.329044 -75.704779
LeftForeArm 16.988299 0.000000 11.005514
LeftHand 0.105586 -0.000000 -5.691858
LeftHandThumb1 -26.253704 0.000000 33.147579
RightShoulder -6.117344 4.154064 -4.310879
RightArm -3.167635 6.826148 50.537867
RightForeArm -24.757727 -0.000000 14.772665
RightHand 0.722566 -0.000000 7.015014
RightHandThumb1 -24.326973 -0.000000 -32.862282
LeftUpLeg 12.426915 15.036373 7.228060
LeftLeg -8.859790 -0.000000 0.000000
LeftFoot -16.156103 27.671175 -8.906697
LeftToeBase 22.564927 -0.000000 -0.000000
RightUpLeg 8.774890 -2.782891 4.134727
RightLeg -4.852441 -0.000000 0.000000
RightFoot -4.050688 -28.530390 3.235934
RightToeBase 13.830404 -0.000000 -0.000000
140
root -5.338823 35.226062 -9.795220 -1.889809 -6.522167 -5.882030
Spine -1.540513 -1.404016 9.415212
Head 6.771463 0.197929 -7.639353
LeftShoulder -22.041211 13.958725 -16.221132
LeftArm 19.886229 -7.268840 -75.671328
LeftForeArm 17.026459 -0.000000 11.033035
LeftHand 0.098206 -0.000000 -5.685607
LeftHandThumb1 -26.253704 0.000000 33.147579
RightShoulder -6.116429 4.160924 -4.322427
RightArm -3.201625 6.888949 50.549368
RightForeArm -24.821155 -0.000000 14.784597
RightHand 0.680059 0.000000 7.028110
RightHandThumb1 -24.326973 -0.000000 -32.862282
LeftUpLeg 12.426009 15.028814 7.230033
LeftLeg -8.861606 -0.000000 0.000000
LeftFoot -16.167567 27.685854 -8.846226
LeftToeBase 22.703770 -0.000000 -0.000000
RightUpLeg 8.783581 -2.800055 4.135604
RightLeg -4.862862 -0.000000 0.000000
RightFoot -4.055628 -28.533679 3.171252
RightToeBase 13.987325 -0.000000 -0.000000
141
root -5.339401 35.225746 -9.795358 -1.888050 -6.512974 -5.878255
Spine -1.530785 -1.418789 9.414797
Head 6.754410 0.241143 -7.639347
LeftShoulder -22.059645 13.966531 -16.246244
LeftArm 19.876007 -7.243693 -75.649549
LeftForeArm 17.064468 -0.000000 11.071390
LeftHand 0.126814 -0.000000 -5.680129
LeftHandThumb1 -26.253704 0.000000 33.147579
RightShoulder -6.117467 4.143552 -4.331231
RightArm -3.201630 6.935134 50.558777
RightForeArm -24.843915 0.000000 14.788127
RightHand 0.630695 -0.000000 7.072130
RightHandThumb1 -24.326973 -0.000000 -32.862282
LeftUpLeg 12.421576 15.051568 7.230831
LeftLeg -8.863521 -0.000000 0.000000
LeftFoot -16.156996 27.663033 -8.822853
LeftToeBase 22.707517 -0.000000 -0.000000
RightUpLeg 8.783048 -2.800329 4.134049
RightLeg -4.866646 -0.000000 0.000000
RightFoot -4.051361 -28.548241 3.158991
RightToeBase 13.935525 -0.000000 -0.000000
142
root -5.340009 35.225542 -9.794379 -1.886657 -6.494168 -5.875158
Spine -1.528161 -1.447950 9.413898
Head 6.750527 0.261502 -7.635340
LeftShoulder -22.092444 13.980052 -16.274680
LeftArm 19.870225 -7.211289 -75.626357
LeftForeArm 17.105804 0.000000 11.128968
LeftHand 0.133901 -0.000000 -5.675141
LeftHandThumb1 -26.253704 0.000000 33.147579
RightShoulder -6.097003 4.147240 -4.341993
RightArm -3.244026 6.944688 50.561207
RightForeArm -24.871374 0.000000 14.809686
RightHand 0.581417 0.000000 7.074759
RightHandThumb1 -24.326973 -0.000000 -32.862282
LeftUpLeg 12.417896 15.048707 7.228798
LeftLeg -8.865006 -0.000000 0.000000
LeftFoot -16.139305 27.631645 -8.873897
LeftToeBase 22.544218 -0.000000 -0.000000
RightUpLeg 8.787479 -2.807418 4.131825
RightLeg -4.873660 -0.000000 0.000000
RightFoot -4.062497 -28.544810 3.240655
RightToeBase 13.837456 -0.000000 -0.000000
143
root -5.341274 35.225512 -9.793689 -1.887856 -6.478235 -5.867474
Spine -1.520142 -1.454819 9.401848
Head 6.749716 0.257888 -7.624695
LeftShoulder -22.115757 14.000919 -16.303265
LeftArm 19.882668 -7.164132 -75.590096
LeftForeArm 17.093460 -0.000000 11.179519
LeftHand 0.124003 -0.000000 -5.664026
LeftHandThumb1 -26.253704 0.000000 33.147579
RightShoulder -6.100575 4.134119 -4.345164
RightArm -3.268724 6.961237 50.562307
RightForeArm -24.869131 -0.000000 14.840094
RightHand 0.522237 -0.000000 7.067659
RightHandThumb1 -24.326973 -0.000000 -32.862282
LeftUpLeg 12.415956 15.040348 7.223483
LeftLeg -8.865827 -0.000000 0.000000
LeftFoot -16.128932 27.615444 -8.883695
LeftToeBase 22.548579 -0.000000 -0.000000
RightUpLeg 8.794380 -2.822616 4.127077
RightLeg -4.882459 -0.000000 0.000000
RightFoot -4.057280 -28.561824 3.163688
RightToeBase 13.945579 -0.000000 -0.000000
144
root -5.342164 35.225318 -9.793340 -1.886946 -6.458865 -5.865948
Spine -1.515281 -1.470267 9.400133
Head 6.749277 0.267664 -7.608318
LeftShoulder -22.129506 14.011307 -16.324567
LeftArm 19.866599 -7.164556 -75.574936
LeftForeArm 17.070760 -0.000000 11.255506
LeftHand 0.133719 -0.000000 -5.637330
LeftHandThumb1 -26.253704 0.000000 33.147579
RightShoulder -6.086412 4.125377 -4.351088
RightArm -3.311242 7.020149 50.552669
RightForeArm -24.917718 0.000000 14.871132
RightHand 0.514366 -0.000000 7.098662
RightHandThumb1 -24.326973 -0.000000 -32.862282
LeftUpLeg 12.407869 15.033597 7.222347
LeftLeg -8.859180 -0.000000 0.000000
LeftFoot -16.134473 27.608362 -8.883410
LeftToeBase 22.554277 -0.000000 -0.000000
RightUpLeg 8.803662 -2.835723 4.127495
RightLeg -4.901318 -0.000000 0.000000
RightFoot -4.046023 -28.581025 3.144551
RightToeBase 13.970105 -0.000000 -0.000000
145
root -5.342780 35.225596 -9.792858 -1.888707 -6.444650 -5.861137
Spine -1.506677 -1.481964 9.393386
Head 6.747511 0.265149 -7.589180
LeftShoulder -22.150850 14.021803 -16.347970
LeftArm 19.863355 -7.185252 -75.570787
LeftForeArm 17.086578 -0.000000 11.328686
LeftHand 0.125500 -0.000000 -5.627357
LeftHandThumb1 -26.253704 0.000000 33.147579
RightShoulder -6.075759 4.107444 -4.343696
RightArm -3.337500 7.080167 50.533189
RightForeArm -24.930793 -0.000000 14.902686
RightHand 0.452525 -0.000000 7.114635
RightHandThumb1 -24.326973 -0.000000 -32.862282
LeftUpLeg 12.404370 15.033297 7.220564
LeftLeg -8.855810 -0.000000 0.000000
LeftFoot -16.135806 27.592880 -8.901433
LeftToeBase 22.523675 -0.000000 -0.000000
RightUpLeg 8.809801 -2.843923 4.122200
RightLeg -4.907418 -0.000000 0.000000
RightFoot -4.037008 -28.560354 3.208980
RightToeBase 13.802972 -0.000000 -0.000000
